<svg width="29" height="36" viewBox="0 0 29 36" fill="none" xmlns="http://www.w3.org/2000/svg">
<path d="M24.2213 19.1411C24.1836 14.5956 27.9071 12.38 28.0804 12.281C25.9699 9.17457 22.6987 8.7482 21.5455 8.71774C18.7944 8.42846 16.1337 10.3776 14.7318 10.3776C13.3072 10.3776 11.1514 8.7482 8.82245 8.79392C5.83008 8.83957 3.03372 10.5908 1.50365 13.3013C-1.66206 18.8365 0.69717 26.968 3.73472 31.4449C5.24968 33.6377 7.02103 36.0817 9.34255 35.9979C11.6112 35.9065 12.463 34.5361 15.199 34.5361C17.9125 34.5361 18.7114 35.9979 21.0782 35.9446C23.5128 35.9065 25.0504 33.7442 26.5126 31.5363C28.2689 29.0237 28.9699 26.5492 29 26.4274C28.9397 26.3893 24.2665 24.5849 24.2213 19.1411ZM19.7516 5.77122C20.9727 4.22564 21.8093 2.13187 21.5756 0C19.8119 0.076097 17.5959 1.23339 16.3296 2.74097C15.2066 4.07336 14.1965 6.25087 14.4604 8.299C16.4352 8.44365 18.4778 7.28635 19.7516 5.77122Z" fill="#090909"/>
</svg>
