<svg width="310" height="92" viewBox="0 0 310 92" fill="none" xmlns="http://www.w3.org/2000/svg">
<g clip-path="url(#clip0_142_11588)">
<path d="M303.402 2.52783H7.5148C4.72221 2.52783 2.45837 4.7792 2.45837 7.5564V85.4993C2.45837 88.2765 4.72221 90.5278 7.5148 90.5278H303.402C306.195 90.5278 308.458 88.2765 308.458 85.4993V7.5564C308.458 4.7792 306.195 2.52783 303.402 2.52783Z" stroke="#090909" stroke-width="3.07639"/>
<path d="M73.0431 44.3028C72.9847 37.2321 78.7624 33.7856 79.0314 33.6316C75.7565 28.7994 70.6806 28.1361 68.891 28.0888C64.6221 27.6388 60.4934 30.6708 58.318 30.6708C56.1074 30.6708 52.7623 28.1361 49.1484 28.2073C44.505 28.2783 40.1659 31.0024 37.7916 35.2187C32.8793 43.8291 36.5402 56.478 41.2536 63.4421C43.6044 66.8531 46.3531 70.6549 49.9554 70.5246C53.4758 70.3824 54.7975 68.2506 59.0431 68.2506C63.2536 68.2506 64.4934 70.5246 68.166 70.4417C71.9437 70.3824 74.3297 67.0188 76.5986 63.5842C79.3238 59.6759 80.4116 55.8266 80.4584 55.6371C80.3648 55.5779 73.1133 52.771 73.0431 44.3028ZM66.1075 23.5053C68.0021 21.101 69.3004 17.8441 68.9378 14.5278C66.201 14.6462 62.7624 16.4464 60.7974 18.7916C59.0548 20.8642 57.4875 24.2514 57.897 27.4374C60.9612 27.6624 64.1308 25.8622 66.1075 23.5053Z" fill="#090909"/>
<path d="M124.704 69.2507H119.803L117.115 60.9391H107.791L105.231 69.2507H100.458L109.7 40.941H115.404L124.704 69.2507ZM116.311 57.4492L113.879 50.0562C113.623 49.2985 113.134 47.5191 112.435 44.718H112.354C112.075 45.9234 111.609 47.7028 110.992 50.0562L108.606 57.4492H116.311ZM148.426 58.7924C148.426 62.2594 147.471 65.0031 145.562 67.0236C143.85 68.8145 141.721 69.7099 139.183 69.7099C136.436 69.7099 134.469 68.7456 133.271 66.8169V77.5278H128.673V55.5436C128.673 53.3624 128.615 51.1238 128.498 48.8393H132.548L132.805 52.0767H132.886C134.423 49.6429 136.751 48.4145 139.869 48.4145C142.314 48.4145 144.351 49.3674 145.981 51.273C147.61 53.1788 148.426 55.6929 148.426 58.7924ZM143.746 58.9646C143.746 56.9786 143.292 55.337 142.384 54.0513C141.394 52.7081 140.056 52.0422 138.38 52.0422C137.252 52.0422 136.215 52.421 135.295 53.1557C134.377 53.902 133.77 54.8778 133.492 56.0716C133.364 56.5194 133.294 56.99 133.282 57.4492V60.8588C133.282 62.3398 133.748 63.591 134.668 64.6243C135.586 65.646 136.786 66.1625 138.263 66.1625C139.997 66.1625 141.348 65.4968 142.314 64.1881C143.257 62.8564 143.746 61.1228 143.746 58.9646ZM172.24 58.7924C172.24 62.2594 171.286 65.0031 169.376 67.0236C167.665 68.8145 165.536 69.7099 162.998 69.7099C160.251 69.7099 158.283 68.7456 157.085 66.8169V77.5278H152.487V55.5436C152.487 53.3624 152.429 51.1238 152.312 48.8393H156.363L156.619 52.0767H156.701C158.237 49.6429 160.565 48.4145 163.685 48.4145C166.129 48.4145 168.166 49.3674 169.795 51.273C171.414 53.1788 172.24 55.6929 172.24 58.7924ZM167.549 58.9646C167.549 56.9786 167.096 55.337 166.187 54.0513C165.198 52.7081 163.859 52.0422 162.184 52.0422C161.054 52.0422 160.018 52.421 159.086 53.1557C158.168 53.902 157.562 54.8778 157.283 56.0716C157.143 56.6342 157.062 57.0934 157.062 57.4492V60.8588C157.062 62.3398 157.528 63.591 158.446 64.6243C159.366 65.646 160.565 66.1625 162.056 66.1625C163.789 66.1625 165.139 65.4968 166.105 64.1881C167.072 62.8564 167.549 61.1228 167.549 58.9646ZM198.859 61.318C198.859 63.7289 198.01 65.6919 196.311 67.1958C194.448 68.8489 191.829 69.6755 188.489 69.6755C185.404 69.6755 182.925 69.09 181.051 67.9075L182.11 64.1307C184.124 65.3131 186.346 65.8985 188.756 65.8985C190.49 65.8985 191.841 65.5083 192.807 64.739C193.773 63.9699 194.261 62.9367 194.261 61.651C194.261 60.503 193.855 59.5386 193.063 58.7465C192.271 57.9659 190.956 57.2311 189.106 56.5653C184.077 54.717 181.563 52.0077 181.563 48.4605C181.563 46.1415 182.447 44.2359 184.228 42.7549C185.998 41.2739 188.349 40.5278 191.282 40.5278C193.89 40.5278 196.066 40.9755 197.8 41.8709L196.648 45.5675C195.018 44.6951 193.191 44.2703 191.13 44.2703C189.513 44.2703 188.233 44.6605 187.324 45.4412C186.556 46.1415 186.172 46.9911 186.172 48.0013C186.172 49.1148 186.615 50.0447 187.5 50.7679C188.268 51.4338 189.652 52.1685 191.666 52.9492C194.133 53.9364 195.949 55.0729 197.114 56.3932C198.277 57.7134 198.859 59.355 198.859 61.318ZM214.107 52.2489H209.032V62.1561C209.032 64.6817 209.928 65.9329 211.721 65.9329C212.547 65.9329 213.222 65.8641 213.769 65.7264L213.897 69.1704C212.99 69.5033 211.803 69.6755 210.325 69.6755C208.509 69.6755 207.088 69.1244 206.064 68.0339C205.04 66.9432 204.528 65.1064 204.528 62.535V52.2489H201.514V48.8508H204.528V45.1083L209.045 43.7651V48.8508H214.118L214.107 52.2489ZM236.932 58.8843C236.932 62.0183 236.025 64.6014 234.209 66.6103C232.311 68.6881 229.786 69.7214 226.631 69.7214C223.593 69.7214 221.172 68.7227 219.368 66.7481C217.564 64.762 216.668 62.2479 216.668 59.2287C216.668 56.0602 217.6 53.4772 219.462 51.4567C221.324 49.4362 223.827 48.4375 226.98 48.4375C230.019 48.4375 232.463 49.4362 234.302 51.4223C236.047 53.3394 236.932 55.8306 236.932 58.8843ZM232.161 58.9876C232.161 57.1164 231.753 55.5092 230.926 54.1775C229.961 52.5588 228.587 51.7437 226.795 51.7437C224.955 51.7437 223.535 52.5588 222.58 54.1775C221.755 55.5206 221.347 57.1508 221.347 59.0794C221.347 60.9507 221.755 62.5579 222.58 63.9011C223.571 65.5197 224.967 66.3348 226.759 66.3348C228.518 66.3348 229.891 65.5083 230.892 63.8666C231.742 62.4775 232.161 60.8588 232.161 58.9876ZM251.89 52.8343C251.412 52.754 250.923 52.7081 250.434 52.7081C248.816 52.7081 247.571 53.305 246.687 54.5105C245.919 55.578 245.535 56.9212 245.535 58.5399V69.2507H240.937V55.2681C240.937 53.1213 240.901 50.986 240.809 48.8393H244.813L244.975 52.7425H245.103C245.592 51.3993 246.349 50.3202 247.408 49.5052C248.362 48.7933 249.538 48.4145 250.736 48.4145C251.168 48.4145 251.54 48.449 251.89 48.4949V52.8343ZM272.457 58.0807C272.468 58.7695 272.409 59.4583 272.294 60.1356H258.489C258.536 62.1561 259.211 63.6944 260.491 64.762C261.654 65.7148 263.157 66.1856 265.008 66.1856C267.056 66.1856 268.918 65.8641 270.595 65.2212L271.316 68.3667C269.36 69.2048 267.044 69.6296 264.379 69.6296C261.166 69.6296 258.651 68.6997 256.813 66.84C254.986 64.9801 254.066 62.4775 254.066 59.3435C254.066 56.2668 254.915 53.7068 256.627 51.6634C258.408 49.4821 260.829 48.3916 263.867 48.3916C266.846 48.3916 269.104 49.4821 270.641 51.6634C271.84 53.3969 272.457 55.5321 272.457 58.0807ZM268.068 56.9097C268.104 55.5666 267.801 54.4071 267.172 53.4198C266.381 52.157 265.147 51.5256 263.505 51.5256C262.005 51.5256 260.782 52.1455 259.839 53.3738C259.071 54.3497 258.617 55.5321 258.477 56.8983L268.068 56.9097Z" fill="#090909"/>
<path d="M106.779 29.4237C105.493 29.4237 104.382 29.3657 103.458 29.2615V15.443C104.756 15.246 106.066 15.1418 107.375 15.1534C112.672 15.1534 115.115 17.7364 115.115 21.941C115.104 26.7942 112.228 29.4237 106.779 29.4237ZM107.562 16.9256C106.849 16.9256 106.241 16.9719 105.738 17.0761V27.5704C106.007 27.6167 106.533 27.6282 107.27 27.6282C110.743 27.6282 112.719 25.6708 112.719 22.0105C112.707 18.7326 110.918 16.9256 107.562 16.9256ZM122.715 29.5278C119.734 29.5278 117.793 27.3155 117.793 24.3155C117.793 21.188 119.769 18.9642 122.879 18.9642C125.825 18.9642 127.802 21.0723 127.802 24.1533C127.802 27.3155 125.767 29.5278 122.715 29.5278ZM122.797 20.609C121.16 20.609 120.108 22.1263 120.108 24.2576C120.108 26.3425 121.184 27.8599 122.774 27.8599C124.376 27.8599 125.44 26.2382 125.44 24.2112C125.451 22.1495 124.399 20.609 122.797 20.609ZM144.825 19.1727L141.633 29.2962H139.552L138.231 24.9062C137.903 23.829 137.623 22.7402 137.412 21.6399H137.366C137.202 22.7402 136.886 23.8522 136.546 24.9062L135.143 29.2962H133.039L130.034 19.1727H132.373L133.53 23.9796C133.8 25.1263 134.033 26.2035 134.221 27.2345H134.267C134.431 26.3772 134.711 25.3232 135.109 24.0028L136.559 19.1727H138.406L139.798 23.8985C140.137 25.0452 140.405 26.1688 140.616 27.2345H140.674C140.826 26.1919 141.048 25.0916 141.364 23.8985L142.604 19.1727H144.825ZM156.599 29.2962H154.331V23.4816C154.331 21.6862 153.64 20.7943 152.272 20.7943C150.929 20.7943 150.005 21.941 150.005 23.273V29.2962H147.737V22.0684C147.737 21.1766 147.713 20.2152 147.655 19.1727H149.654L149.759 20.7363H149.817C150.426 19.6592 151.665 18.9642 153.057 18.9642C155.196 18.9642 156.61 20.5859 156.61 23.2383L156.599 29.2962ZM162.854 29.2962H160.586V14.5278H162.854V29.2962ZM171.144 29.5278C168.162 29.5278 166.221 27.3155 166.221 24.3155C166.221 21.188 168.198 18.9642 171.308 18.9642C174.254 18.9642 176.23 21.0723 176.23 24.1533C176.23 27.3155 174.184 29.5278 171.144 29.5278ZM171.226 20.609C169.588 20.609 168.537 22.1263 168.537 24.2576C168.537 26.3425 169.612 27.8599 171.202 27.8599C172.804 27.8599 173.868 26.2382 173.868 24.2112C173.868 22.1495 172.828 20.609 171.226 20.609ZM185.186 29.2962L185.022 28.1263H184.964C184.274 29.0645 183.257 29.5162 181.971 29.5162C180.134 29.5162 178.837 28.2421 178.837 26.5395C178.837 24.0375 181.023 22.7518 184.811 22.7518V22.5665C184.811 21.2344 184.099 20.5626 182.696 20.5626C181.69 20.5626 180.801 20.8175 180.03 21.3156L179.573 19.8329C180.521 19.2537 181.701 18.9526 183.082 18.9526C185.747 18.9526 187.103 20.3426 187.103 23.134V26.8638C187.103 27.8831 187.15 28.6822 187.255 29.2846L185.186 29.2962ZM184.87 24.2576C182.344 24.2576 181.082 24.8599 181.082 26.2962C181.082 27.3618 181.737 27.8831 182.637 27.8831C183.795 27.8831 184.87 27.0143 184.87 25.8213V24.2576ZM198.105 29.2962L198.001 27.6745H197.942C197.287 28.9024 196.188 29.5278 194.656 29.5278C192.189 29.5278 190.365 27.3851 190.365 24.3619C190.365 21.1997 192.26 18.9642 194.843 18.9642C196.212 18.9642 197.181 19.4159 197.72 20.3426H197.766V14.5278H200.034V26.5626C200.034 27.5356 200.058 28.4622 200.116 29.2846H198.105V29.2962ZM197.778 23.3426C197.778 21.9294 196.831 20.7132 195.381 20.7132C193.697 20.7132 192.668 22.1959 192.668 24.2692C192.668 26.3078 193.732 27.7094 195.335 27.7094C196.76 27.7094 197.778 26.4815 197.778 25.0221V23.3426ZM214.463 29.5278C211.482 29.5278 209.54 27.3155 209.54 24.3155C209.54 21.188 211.516 18.9642 214.627 18.9642C217.573 18.9642 219.548 21.0723 219.548 24.1533C219.548 27.3155 217.515 29.5278 214.463 29.5278ZM214.545 20.609C212.907 20.609 211.855 22.1263 211.855 24.2576C211.855 26.3425 212.931 27.8599 214.521 27.8599C216.123 27.8599 217.187 26.2382 217.187 24.2112C217.199 22.1495 216.146 20.609 214.545 20.609ZM231.767 29.2962H229.498V23.4816C229.498 21.6862 228.809 20.7943 227.441 20.7943C226.096 20.7943 225.173 21.941 225.173 23.273V29.2962H222.904V22.0684C222.904 21.1766 222.881 20.2152 222.822 19.1727H224.821L224.927 20.7363H224.985C225.594 19.6592 226.833 18.9642 228.224 18.9642C230.364 18.9642 231.779 20.5859 231.779 23.2383V29.2962H231.767ZM247.037 20.8637H244.535V25.7749C244.535 27.0259 244.967 27.6514 245.856 27.6514C246.253 27.6514 246.592 27.6051 246.862 27.5472L246.92 29.2498C246.476 29.4121 245.891 29.5047 245.155 29.5047C243.365 29.5047 242.29 28.5318 242.29 25.9603V20.8522H240.793V19.161H242.29V17.3078L244.523 16.636V19.161H247.026L247.037 20.8637ZM259.068 29.2962H256.799V23.5279C256.799 21.7209 256.11 20.8059 254.742 20.8059C253.561 20.8059 252.474 21.5935 252.474 23.2036V29.3078H250.205V14.5278H252.474V20.609H252.521C253.234 19.5086 254.274 18.9642 255.595 18.9642C257.758 18.9642 259.08 20.6321 259.08 23.273L259.068 29.2962ZM271.379 24.7788H264.563C264.61 26.6901 265.884 27.7788 267.779 27.7788C268.784 27.7788 269.719 27.6167 270.537 27.3039L270.889 28.8676C269.918 29.2846 268.784 29.4931 267.463 29.4931C264.271 29.4931 262.377 27.4892 262.377 24.3966C262.377 21.2923 264.317 18.9642 267.205 18.9642C269.812 18.9642 271.45 20.8753 271.45 23.7712C271.473 24.0955 271.45 24.4429 271.379 24.7788ZM269.298 23.1688C269.298 21.605 268.504 20.5047 267.054 20.5047C265.744 20.5047 264.716 21.6283 264.575 23.1688H269.298Z" fill="#090909"/>
</g>
<defs>
<clipPath id="clip0_142_11588">
<rect width="309" height="91" fill="white" transform="translate(0.458374 0.527832)"/>
</clipPath>
</defs>
</svg>
