<svg width="309" height="92" viewBox="0 0 309 92" fill="none" xmlns="http://www.w3.org/2000/svg">
<g clip-path="url(#clip0_142_11574)">
<path d="M302.944 2.52783H7.05643C4.26384 2.52783 2 4.7792 2 7.5564V85.4993C2 88.2765 4.26384 90.5278 7.05643 90.5278H302.944C305.736 90.5278 308 88.2765 308 85.4993V7.5564C308 4.7792 305.736 2.52783 302.944 2.52783Z" stroke="#090909" stroke-width="3.07639"/>
<path d="M109 24.9794C109 26.7859 108.6 28.3666 107.6 29.4956C106.4 30.8504 105 31.5278 103.2 31.5278C101.4 31.5278 100 30.8504 98.8 29.4956C97.6 28.1407 97 26.5601 97 24.5278C97 22.4956 97.6 20.915 98.8 19.5601C100 18.2053 101.4 17.5278 103.2 17.5278C104 17.5278 104.8 17.7536 105.6 18.2053C106.4 18.6568 107 19.1085 107.4 19.7859L106.4 20.9149C105.6 19.7859 104.6 19.3343 103.2 19.3343C102 19.3343 100.8 19.7859 100 20.9149C99 21.8181 98.6 23.173 98.6 24.7536C98.6 26.3343 99 27.6891 100 28.5923C101 29.4956 102 30.1729 103.2 30.1729C104.6 30.1729 105.6 29.7214 106.6 28.5923C107.2 27.9149 107.6 27.0116 107.6 25.8826H103.2V24.3021H109C109 24.3021 109 24.5278 109 24.9794Z" fill="#090909" stroke="#090909" stroke-width="0.307639" stroke-miterlimit="10"/>
<path d="M120 19.1279H113.829V22.9278H119.543V24.3279H113.829V28.1279H120V29.5278H112V17.5278H120V19.1279Z" fill="#090909" stroke="#090909" stroke-width="0.307639" stroke-miterlimit="10"/>
<path d="M128.358 29.5278H126.643V18.9279H123V17.5278H132V18.9279H128.358V29.5278Z" fill="#090909" stroke="#090909" stroke-width="0.307639" stroke-miterlimit="10"/>
<path d="M138 29.5278V17.5278H140V29.5278H138Z" fill="#090909" stroke="#090909" stroke-width="0.307639" stroke-miterlimit="10"/>
<path d="M146.487 29.5278H144.732V18.9279H141V17.5278H150V18.9279H146.268V29.5278H146.487Z" fill="#090909" stroke="#090909" stroke-width="0.307639" stroke-miterlimit="10"/>
<path d="M166.968 29.4956C165.613 30.8504 164.032 31.5278 162 31.5278C159.968 31.5278 158.388 30.8504 157.032 29.4956C155.678 28.1407 155 26.5601 155 24.5278C155 22.4956 155.678 20.915 157.032 19.5601C158.388 18.2053 159.968 17.5278 162 17.5278C164.032 17.5278 165.613 18.2053 166.968 19.5601C168.322 20.915 169 22.4956 169 24.5278C169 26.3343 168.322 28.1407 166.968 29.4956ZM158.388 28.3666C159.291 29.2698 160.646 29.9471 162 29.9471C163.356 29.9471 164.71 29.4956 165.613 28.3666C166.517 27.4633 167.193 26.1085 167.193 24.5278C167.193 22.9471 166.742 21.5923 165.613 20.6891C164.71 19.7859 163.356 19.1085 162 19.1085C160.646 19.1085 159.291 19.5601 158.388 20.6891C157.485 21.5923 156.807 22.9471 156.807 24.5278C156.807 25.8826 157.259 27.2375 158.388 28.3666Z" fill="#090909" stroke="#090909" stroke-width="0.307639" stroke-miterlimit="10"/>
<path d="M172 29.5278V17.5278H173.761L179.434 26.9278V24.5279V17.5278H181V29.5278H179.434L173.369 19.7279V22.1278V29.5278H172Z" fill="#090909" stroke="#090909" stroke-width="0.307639" stroke-miterlimit="10"/>
<path d="M155.723 49.8177C150.504 49.8177 146.372 53.7586 146.372 59.232C146.372 64.4864 150.504 68.6462 155.723 68.6462C160.943 68.6462 165.076 64.7053 165.076 59.232C165.076 53.7586 160.943 49.8177 155.723 49.8177ZM155.723 64.7053C152.896 64.7053 150.504 62.2971 150.504 59.0131C150.504 55.729 152.896 53.3208 155.723 53.3208C158.551 53.3208 160.943 55.5101 160.943 59.0131C160.943 62.516 158.551 64.7053 155.723 64.7053ZM135.496 49.8177C130.276 49.8177 126.144 53.7586 126.144 59.232C126.144 64.4864 130.276 68.6462 135.496 68.6462C140.717 68.6462 144.849 64.7053 144.849 59.232C144.849 53.7586 140.717 49.8177 135.496 49.8177ZM135.496 64.7053C132.67 64.7053 130.276 62.2971 130.276 59.0131C130.276 55.729 132.67 53.3208 135.496 53.3208C138.323 53.3208 140.717 55.5101 140.717 59.0131C140.717 62.516 138.323 64.7053 135.496 64.7053ZM111.355 52.6639V56.6047H120.707C120.489 58.7942 119.619 60.5456 118.532 61.6402C117.227 62.9538 115.052 64.4864 111.355 64.4864C105.482 64.4864 101.132 59.8887 101.132 53.9776C101.132 48.0664 105.7 43.4687 111.355 43.4687C114.4 43.4687 116.792 44.7822 118.532 46.3148L121.359 43.4687C118.967 41.2793 115.922 39.5278 111.572 39.5278C103.742 39.5278 97 46.0959 97 53.9776C97 61.8591 103.742 68.4273 111.572 68.4273C115.922 68.4273 118.967 67.1137 121.577 64.2675C124.187 61.6402 125.057 57.9183 125.057 55.0723C125.057 54.1965 125.057 53.3208 124.839 52.6639H111.355ZM210.097 55.729C209.227 53.5397 207.051 49.8177 202.268 49.8177C197.483 49.8177 193.568 53.5397 193.568 59.232C193.568 64.4864 197.483 68.6462 202.702 68.6462C206.834 68.6462 209.445 66.019 210.315 64.4864L207.27 62.2971C206.183 63.8296 204.877 64.9242 202.702 64.9242C200.527 64.9242 199.222 64.0486 198.134 62.0782L210.532 56.8237L210.097 55.729ZM197.483 58.7942C197.483 55.2912 200.31 53.3208 202.268 53.3208C203.789 53.3208 205.312 54.1965 205.747 55.2912L197.483 58.7942ZM187.26 67.7704H191.392V40.4036H187.26V67.7704ZM180.736 51.7882C179.647 50.6935 177.908 49.5988 175.732 49.5988C171.166 49.5988 166.815 53.7586 166.815 59.0131C166.815 64.2675 170.948 68.2083 175.732 68.2083C177.908 68.2083 179.647 67.1137 180.517 66.019H180.736V67.3326C180.736 70.8355 178.778 72.8059 175.732 72.8059C173.34 72.8059 171.6 71.0545 171.166 69.5219L167.685 71.0545C168.773 73.4627 171.383 76.5278 175.951 76.5278C180.736 76.5278 184.651 73.6817 184.651 66.8948V50.2557H180.736V51.7882ZM175.951 64.7053C173.123 64.7053 170.73 62.2971 170.73 59.0131C170.73 55.729 173.123 53.3208 175.951 53.3208C178.778 53.3208 180.953 55.729 180.953 59.0131C180.953 62.2971 178.778 64.7053 175.951 64.7053ZM229.019 40.4036H219.232V67.7704H223.364V57.4805H229.019C233.586 57.4805 237.936 54.1965 237.936 48.9421C237.936 43.6876 233.586 40.4036 229.019 40.4036ZM229.236 53.7586H223.364V44.3444H229.236C232.281 44.3444 234.021 46.9717 234.021 48.9421C233.804 51.1314 232.064 53.7586 229.236 53.7586ZM254.249 49.8177C251.203 49.8177 248.158 51.1314 247.07 53.9776L250.768 55.5101C251.638 53.9776 252.943 53.5397 254.466 53.5397C256.64 53.5397 258.598 54.8534 258.815 57.0427V57.2616C258.164 56.8237 256.423 56.1669 254.683 56.1669C250.768 56.1669 246.853 58.3563 246.853 62.2971C246.853 66.019 250.115 68.4273 253.596 68.4273C256.423 68.4273 257.728 67.1137 258.815 65.8001H259.032V67.9894H262.947V57.4805C262.513 52.445 258.815 49.8177 254.249 49.8177ZM253.813 64.7053C252.508 64.7053 250.551 64.0486 250.551 62.2971C250.551 60.1078 252.943 59.4509 254.9 59.4509C256.64 59.4509 257.511 59.8889 258.598 60.3267C258.164 62.9539 255.988 64.7053 253.813 64.7053ZM276.649 50.2557L272.083 62.0782H271.866L267.081 50.2557H262.73L269.908 66.8948L265.775 76.09H269.908L281 50.2557H276.649ZM240.111 67.7704H244.243V40.4036H240.111V67.7704Z" fill="#090909"/>
<path d="M29.2985 73.5278C28.4328 73.0869 28 71.9846 28 70.8822C28 70.6617 28 70.2208 28 70.0003C28 53.6854 28 37.3703 28 21.2758C28 20.3939 28.2164 19.7325 28.4328 18.8506C28.6493 18.4096 29.0821 17.9687 29.515 17.5278C38.8209 27.0081 47.9105 36.4884 57 45.9688C47.6941 54.7876 38.6045 64.0476 29.2985 73.5278Z" fill="#090909"/>
<path d="M66 35.7698C63.4177 38.2859 60.6202 40.802 58.038 43.5278C49.4304 34.931 40.6076 26.3343 32 17.7375C32 17.7375 32 17.5278 32.2152 17.5278C43.4051 23.6084 54.5949 29.6892 66 35.7698Z" fill="#090909"/>
<path d="M32 72.5278C40.6624 63.8611 49.5414 55.1945 58.2038 46.5278C60.5859 48.9111 63.1847 51.2945 66 53.8945C54.7388 60.1779 43.4777 66.4612 32.2165 72.5278H32Z" fill="#090909"/>
<path d="M66.2608 52.5278C63.4347 49.8079 60.8261 47.0879 58 44.3679C60.8261 41.4212 63.6522 38.4745 66.4782 35.5278C67.3478 35.9811 68.2174 36.4345 69.087 37.1144C71.2609 38.4745 73.6522 39.6079 75.8261 40.9678C76.4784 41.1945 76.9131 41.6479 77.3478 42.3278C78.2174 43.4611 78.2174 44.5946 77.3478 45.7279C76.9131 46.1812 76.4784 46.6346 75.8261 46.8612C72.7827 48.9012 69.5218 50.7146 66.2608 52.5278Z" fill="#090909"/>
</g>
<defs>
<clipPath id="clip0_142_11574">
<rect width="309" height="91" fill="white" transform="translate(0 0.527832)"/>
</clipPath>
</defs>
</svg>
