<svg width="37" height="37" viewBox="0 0 37 37" fill="none" xmlns="http://www.w3.org/2000/svg">
<path d="M0.255876 11.061C0.433953 5.82274 4.4403 1.51441 9.65179 0.956812L14.0933 0.481588C17.0854 0.161453 20.1032 0.163142 23.0949 0.486626L27.3596 0.947753C32.566 1.51071 36.5658 5.81689 36.7438 11.0506L37 18.5877L36.747 26.03C36.5677 31.3046 32.5083 35.6303 27.2556 36.1439L22.5956 36.5995C19.8717 36.8659 17.1283 36.8659 14.4044 36.5995L9.74436 36.1439C4.4917 35.6303 0.432322 31.3046 0.253006 26.03L0 18.5877L0.255876 11.061Z" fill="#5A45FE"/>
<path fill-rule="evenodd" clip-rule="evenodd" d="M22.6088 26.6633C21.5662 27.1044 20.3191 27.3249 18.8675 27.3249C17.4881 27.3249 16.2851 27.1244 15.2586 26.7234C14.2401 26.3144 13.4381 25.729 12.8526 24.9671C12.2672 24.2052 11.9424 23.299 11.8782 22.2484L11.8662 22.0439H15.3067L15.3308 22.1762C15.403 22.6253 15.5994 23.0143 15.9202 23.3431C16.241 23.6639 16.6621 23.9165 17.1833 24.1009C17.7046 24.2774 18.2941 24.3656 18.9517 24.3656C19.6254 24.3656 20.2028 24.2734 20.684 24.0889C21.1732 23.9045 21.5501 23.6478 21.8148 23.319C22.0875 22.9822 22.2238 22.5932 22.2238 22.1521V22.1401C22.2238 21.5546 21.9912 21.0975 21.5261 20.7687C21.069 20.4319 20.3031 20.1512 19.2284 19.9266L17.3879 19.5657C15.6636 19.2209 14.3724 18.6354 13.5143 17.8094C13.2566 17.5613 13.0376 17.2916 12.8573 17.0001H21.0271C22.6317 17.3634 23.8205 17.9058 24.5937 18.6274C25.4357 19.4053 25.8568 20.476 25.8568 21.8394V21.8514C25.8568 22.9661 25.5761 23.9365 25.0147 24.7626C24.4613 25.5806 23.6594 26.2142 22.6088 26.6633ZM12.2404 15.0001C12.2315 14.8724 12.2271 14.7422 12.2271 14.6095V14.5975C12.2351 13.5388 12.5198 12.6166 13.0812 11.8306C13.6506 11.0367 14.4326 10.4191 15.427 9.97804C16.4295 9.53695 17.5683 9.31641 18.8435 9.31641C20.1828 9.31641 21.3376 9.52893 22.308 9.95398C23.2864 10.371 24.0483 10.9605 24.5937 11.7224C25.139 12.4842 25.4438 13.3704 25.5079 14.3809L25.5199 14.5854L22.0915 14.5854L22.0674 14.4411C22.0113 13.992 21.8389 13.607 21.5501 13.2862C21.2694 12.9654 20.8965 12.7168 20.4314 12.5404C19.9742 12.3639 19.4449 12.2757 18.8435 12.2757C18.2339 12.2757 17.7046 12.3639 17.2555 12.5404C16.8064 12.7168 16.4616 12.9654 16.221 13.2862C15.9804 13.599 15.8601 13.9639 15.8601 14.3809V14.393C15.8601 14.6114 15.8974 14.8138 15.9721 15.0001H12.2404Z" fill="white"/>
</svg>
